<?xml version="1.0" encoding="utf-8"?>
<!-- Generator: Adobe Illustrator 15.0.0, SVG Export Plug-In . SVG Version: 6.00 Build 0)  -->
<!DOCTYPE svg PUBLIC "-//W3C//DTD SVG 1.1//EN" "http://www.w3.org/Graphics/SVG/1.1/DTD/svg11.dtd">
<svg version="1.1" id="Layer_2" xmlns="http://www.w3.org/2000/svg" xmlns:xlink="http://www.w3.org/1999/xlink" x="0px" y="0px"
	 width="512px" height="512px" viewBox="0 0 512 512" enable-background="new 0 0 512 512" xml:space="preserve">
<title>DELIVERY</title>
<path fill="#5288CB" d="M464.944,504.136L417.38,121.772c-0.436-3.505-3.415-6.137-6.948-6.136H380V75
	c-0.046-41.402-33.598-74.954-75-75h-98c-41.402,0.046-74.954,33.598-75,75v40.636h-30.432c-3.532,0-6.512,2.631-6.948,6.136
	L47.056,504.136c-0.482,3.832,2.234,7.328,6.065,7.81C53.413,511.982,53.706,512,54,512h404c3.861,0.004,6.995-3.124,6.999-6.985
	C464.999,504.721,464.98,504.428,464.944,504.136z M146,75c0.038-33.674,27.326-60.962,61-61h98c33.674,0.038,60.963,27.326,61,61
	v40.636h-18V75c-0.026-23.737-19.263-42.974-43-43h-98c-23.737,0.026-42.974,19.263-43,43v40.636h-18V75z M178,115.636V75
	c0.018-16.009,12.991-28.982,29-29h98c16.009,0.018,28.982,12.991,29,29v40.636H178z M61.924,498l45.824-368.364h296.5L450.076,498
	H61.924z"/>
<path fill="#5288CB" d="M235.86,214.304c-1.387-17.86-15.828-31.908-33.72-32.8c-18.617-0.66-34.495,13.364-36.14,31.92
	l-4.524,51.145c-1.54,17.408,5.932,31.123,18.992,36.072l-6.7,116.451c-1.144,14.979,10.071,28.049,25.049,29.192
	c14.979,1.145,28.048-10.07,29.192-25.049c0.104-1.353,0.105-2.711,0.006-4.063l-6.704-116.531
	c13.064-4.949,20.532-18.664,18.992-36.072L235.86,214.304z M212.968,288.4c-3.583,0.529-6.168,3.707-5.96,7.324l7.036,122.319
	c0.267,3.646-1.007,7.237-3.512,9.9c-5.217,5.323-13.761,5.411-19.085,0.194c-0.065-0.064-0.13-0.129-0.195-0.194
	c-2.52-2.686-3.793-6.309-3.508-9.98l7.028-122.239c0.21-3.621-2.383-6.802-5.972-7.324c-14.092-2.096-13.812-17.84-13.392-22.612
	l4.528-51.144c0.965-10.852,10.057-19.171,20.952-19.172c0.248,0,0.5,0,0.748,0c10.836,0.628,19.517,9.211,20.268,20.04
	l4.456,50.292C226.8,270.576,227.064,286.32,212.968,288.4z"/>
<path fill="#5288CB" d="M348.98,247.14v-58.652c0-3.866-3.135-7-7-7c-3.866,0-7,3.134-7,7v51.96h-16.872v-51.96c0-3.866-3.135-7-7-7
	c-3.866,0-7.001,3.134-7.001,7v51.96H287.24v-51.96c0-3.866-3.135-7-7-7c-3.866,0-7,3.134-7,7v58.652l-1.545,17.428
	c-1.539,17.408,5.929,31.123,18.992,36.072L284,417.092c-1.145,14.979,10.07,28.049,25.05,29.192
	c14.979,1.145,28.048-10.07,29.192-25.049c0.104-1.353,0.105-2.711,0.006-4.063l-6.716-116.531
	c13.06-4.949,20.532-18.664,18.992-36.072L348.98,247.14z M323.2,288.4c-3.584,0.528-6.171,3.707-5.96,7.324l7.032,122.319
	c0.268,3.646-1.007,7.238-3.513,9.9c-5.216,5.323-13.761,5.411-19.085,0.194c-0.065-0.064-0.13-0.129-0.194-0.194
	c-2.52-2.687-3.793-6.309-3.508-9.98l7.031-122.239c0.209-3.617-2.377-6.795-5.96-7.324c-14.096-2.096-13.812-17.836-13.392-22.612
	l1.004-11.356h48.92l1.004,11.356C337,270.576,337.28,286.32,323.2,288.4z"/>
</svg>
