<?xml version="1.0"?>
<svg xmlns="http://www.w3.org/2000/svg" id="Layer_2" data-name="Layer 2" viewBox="0 0 128 128" width="512" height="512"><title>DELIVERY</title><path d="M116.236,126.034,104.345,30.443a1.75,1.75,0,0,0-1.737-1.534H95V18.75A18.771,18.771,0,0,0,76.25,0H51.75A18.771,18.771,0,0,0,33,18.75V28.909H25.392a1.75,1.75,0,0,0-1.737,1.534L11.764,126.034A1.748,1.748,0,0,0,13.5,128h101a1.748,1.748,0,0,0,1.736-1.966ZM36.5,18.75A15.267,15.267,0,0,1,51.75,3.5h24.5A15.267,15.267,0,0,1,91.5,18.75V28.909H87V18.75A10.762,10.762,0,0,0,76.25,8H51.75A10.762,10.762,0,0,0,41,18.75V28.909H36.5Zm8,10.159V18.75a7.258,7.258,0,0,1,7.25-7.25h24.5a7.258,7.258,0,0,1,7.25,7.25V28.909ZM15.481,124.5,26.937,32.409h74.125L112.519,124.5Z"/><path d="M58.965,53.576a8.9,8.9,0,0,0-8.43-8.2A8.759,8.759,0,0,0,41.5,53.356L40.369,66.142c-.385,4.352,1.483,7.781,4.748,9.018l-1.675,29.113a6.8,6.8,0,1,0,13.562.02L55.328,75.16c3.266-1.237,5.133-4.666,4.748-9.018ZM53.242,72.1a1.749,1.749,0,0,0-1.49,1.831l1.759,30.58a3.264,3.264,0,0,1-.878,2.475,3.374,3.374,0,0,1-4.82,0,3.275,3.275,0,0,1-.877-2.495l1.757-30.56A1.748,1.748,0,0,0,47.2,72.1c-3.523-.524-3.453-4.46-3.348-5.653l1.132-12.786a5.259,5.259,0,0,1,5.238-4.793c.062,0,.125,0,.187,0a5.392,5.392,0,0,1,5.067,5.01L56.59,66.451C56.7,67.644,56.766,71.58,53.242,72.1Z"/><path d="M87.245,61.785V47.122a1.75,1.75,0,0,0-3.5,0v12.99H79.527V47.122a1.75,1.75,0,0,0-3.5,0v12.99H71.81V47.122a1.75,1.75,0,0,0-3.5,0V61.785l-.386,4.357c-.385,4.352,1.482,7.781,4.748,9.018L71,104.273a6.8,6.8,0,1,0,13.562.02L82.883,75.16c3.265-1.237,5.133-4.666,4.748-9.018ZM80.8,72.1a1.748,1.748,0,0,0-1.49,1.831l1.758,30.58a3.262,3.262,0,0,1-.878,2.475,3.374,3.374,0,0,1-4.82,0,3.277,3.277,0,0,1-.877-2.495l1.758-30.56a1.749,1.749,0,0,0-1.49-1.831c-3.524-.524-3.453-4.459-3.348-5.653l.251-2.839H83.894l.251,2.839C84.25,67.644,84.32,71.58,80.8,72.1Z"/></svg>
