<?xml version="1.0" encoding="utf-8"?>
<!-- Generator: Adobe Illustrator 15.0.0, SVG Export Plug-In . SVG Version: 6.00 Build 0)  -->
<!DOCTYPE svg PUBLIC "-//W3C//DTD SVG 1.1//EN" "http://www.w3.org/Graphics/SVG/1.1/DTD/svg11.dtd">
<svg version="1.1" id="Layer_1" xmlns="http://www.w3.org/2000/svg" xmlns:xlink="http://www.w3.org/1999/xlink" x="0px" y="0px"
	 width="612px" height="792px" viewBox="0 0 612 792" enable-background="new 0 0 612 792" xml:space="preserve">
<g>
	<g>
		<g>
			<path fill="#5288CB" d="M538.64,460.108c-8.269,0-16.212,1.395-23.633,3.928l-10.105-20.212
				c10.563-3.995,21.947-6.188,33.738-6.188c13.318,0,26.206,2.677,38.304,7.959c5.015,2.187,10.861-0.103,13.051-5.119
				c2.19-5.02-0.102-10.863-5.119-13.053c-14.615-6.379-30.17-9.614-46.235-9.614c-14.946,0-29.354,2.915-42.638,8.216
				l-36.727-73.454c1.736,0.303,3.52,0.469,5.343,0.469h21.148c5.476,0,9.914-4.438,9.914-9.914v-42.298
				c0-5.476-4.438-9.914-9.914-9.914h-21.148c-12.063,0-22.535,6.916-27.678,16.988l-10.483-20.967
				c-5.295-10.592-15.942-17.17-27.783-17.17h-18.652c-5.475,0-9.913,4.438-9.913,9.914c0,5.477,4.438,9.914,9.913,9.914h18.652
				c4.282,0,8.135,2.381,10.05,6.211l25.675,51.349l-4.82,2.411c-10.592,5.295-17.172,15.941-17.172,27.783v103.909h-85.257
				c-17.856,0-32.385-14.526-32.385-32.384v-42.959h0.661c17.128,0,31.063-13.935,31.063-31.063
				c0-17.128-13.935-31.063-31.063-31.063H210.83c-8.493,0-16.196,3.429-21.81,8.971V205.659c0-11.297-9.19-20.488-20.488-20.488
				H20.488C9.19,185.171,0,194.361,0,205.659v148.043C0,365,9.19,374.19,20.488,374.19H42.74c-0.468,2.032-0.723,4.125-0.689,6.266
				c0.222,14.038,11.824,25.458,25.863,25.458h53.298c-6.703,4.279-12.445,8.81-17.224,13.104
				c-21.964,19.738-33.702,43.259-37.362,58.688c-1.974,8.32-0.079,16.912,5.199,23.575c5.206,6.573,13.003,10.338,21.399,10.338
				c0.019,0,0.036,0,0.054,0l5.224-0.009c-2.193,7.041-3.331,14.413-3.331,21.857c0,40.451,32.91,73.36,73.361,73.36
				c37.087,0,67.816-27.671,72.672-63.447h191.691c5.475,0,9.913-4.437,9.913-9.913c0-6.46,0.646-12.913,1.918-19.179
				c5.295-26.084,21.11-47.956,42.453-61.577l10.103,20.205c-19.307,13.229-32.003,35.433-32.003,60.551
				c0,40.451,32.909,73.36,73.361,73.36c40.451,0,73.36-32.909,73.36-73.36S579.091,460.108,538.64,460.108z M210.83,363.616h84.596
				c6.196,0,11.236,5.04,11.236,11.235s-5.04,11.235-11.236,11.235H210.83c-6.195,0-11.236-5.04-11.236-11.235
				S204.634,363.616,210.83,363.616z M19.827,205.659c0-0.363,0.296-0.661,0.661-0.661h148.043c0.365,0,0.661,0.297,0.661,0.661
				v21.81H19.827V205.659z M20.488,354.363c-0.365,0-0.661-0.297-0.661-0.661V247.296h149.365v106.406
				c0,0.363-0.296,0.661-0.661,0.661H20.488z M67.914,386.086c-3.277,0-5.985-2.666-6.037-5.943
				c-0.027-1.632,0.592-3.172,1.738-4.335c0.807-0.817,1.809-1.359,2.896-1.618l113.273,0.032c-0.004,0.21-0.016,0.418-0.016,0.629
				c0,3.961,0.753,7.749,2.111,11.235H67.914z M93.241,491.795c-0.005,0-0.011,0-0.016,0c-3.15,0-5.022-1.768-5.857-2.822
				c-1.484-1.875-2.012-4.312-1.449-6.688c7.306-30.799,45.335-76.37,103.761-76.37c45.355,0,62.258,43.346,62.258,70.669
				c0,7.41-4.091,14.921-11.911,14.936L93.241,491.795z M179.767,533.469c0,6.195-5.04,11.235-11.235,11.235
				s-11.235-5.04-11.235-11.235s5.04-11.235,11.235-11.235S179.767,527.273,179.767,533.469z M168.531,587.002
				c-29.519,0-53.533-24.015-53.533-53.533c0-7.581,1.631-15.046,4.7-21.897l26.873-0.05c-5.621,5.624-9.102,13.386-9.102,21.947
				c0,17.128,13.935,31.063,31.063,31.063s31.063-13.935,31.063-31.063c0-8.604-3.517-16.399-9.188-22.03l26.875-0.052
				c3.124,6.899,4.784,14.432,4.784,22.081C222.065,562.987,198.05,587.002,168.531,587.002z M425.295,510.346
				c-0.883,4.346-1.515,8.762-1.894,13.209H241.215c-0.564-4.145-1.484-8.229-2.74-12.207l1.586-0.002
				c18.073-0.033,31.702-14.978,31.702-34.763c0-21.452-7.139-43.19-19.588-59.639c-2.731-3.608-6.047-7.395-10.009-11.03h32.771
				v42.959c0,28.789,23.422,52.211,52.212,52.211h95.17c2.197,0,4.221-0.723,5.864-1.933
				C427.048,502.807,426.068,506.534,425.295,510.346z M464.618,310.743h11.235v22.471h-11.235c-6.196,0-11.236-5.04-11.236-11.235
				S458.422,310.743,464.618,310.743z M432.233,488.147V377.347c0-4.283,2.379-8.133,6.211-10.05l4.821-2.411l35.015,70.028
				C458.038,447.341,441.758,465.85,432.233,488.147z M538.64,587.002c-29.52,0-53.534-24.015-53.534-53.533
				s24.015-53.533,53.534-53.533c29.519,0,53.533,24.015,53.533,53.533S568.158,587.002,538.64,587.002z"/>
			<path fill="#5288CB" d="M538.64,502.406c-17.128,0-31.063,13.935-31.063,31.063s13.935,31.063,31.063,31.063
				s31.063-13.935,31.063-31.063S555.768,502.406,538.64,502.406z M538.64,544.704c-6.195,0-11.235-5.04-11.235-11.235
				s5.04-11.235,11.235-11.235s11.235,5.04,11.235,11.235S544.835,544.704,538.64,544.704z"/>
		</g>
	</g>
</g>
</svg>
