<svg xmlns="http://www.w3.org/2000/svg" width="882" height="249" viewBox="0 0 882 249">
  <g id="Group_6652" data-name="Group 6652" transform="translate(-380 -644)">
    <g id="Group_5925" data-name="Group 5925" transform="translate(0 -1)">
      <line id="Line_4" data-name="Line 4" x2="844" transform="translate(418 653)" fill="none" stroke="#eee" stroke-width="1"/>
      <line id="Line_4-2" data-name="Line 4" x2="844" transform="translate(418 694)" fill="none" stroke="#eee" stroke-width="1"/>
      <line id="Line_4-3" data-name="Line 4" x2="844" transform="translate(418 735)" fill="none" stroke="#eee" stroke-width="1"/>
      <line id="Line_4-4" data-name="Line 4" x2="844" transform="translate(418 776)" fill="none" stroke="#eee" stroke-width="1"/>
      <line id="Line_4-5" data-name="Line 4" x2="844" transform="translate(418 817)" fill="none" stroke="#eee" stroke-width="1"/>
    </g>
    <g id="Group_5922" data-name="Group 5922" transform="translate(0 -1)">
      <text id="_500" data-name="500" transform="translate(380 658)" fill="#2b2b2b" font-size="16" font-family="CircularStd-Book, Circular Std Book"><tspan x="0" y="0">500</tspan></text>
      <text id="_400" data-name="400" transform="translate(380 699)" fill="#2b2b2b" font-size="16" font-family="CircularStd-Book, Circular Std Book"><tspan x="0" y="0">400</tspan></text>
      <text id="_300" data-name="300" transform="translate(380 740)" fill="#2b2b2b" font-size="16" font-family="CircularStd-Book, Circular Std Book"><tspan x="0" y="0">300</tspan></text>
      <text id="_200" data-name="200" transform="translate(380 781)" fill="#2b2b2b" font-size="16" font-family="CircularStd-Book, Circular Std Book"><tspan x="0" y="0">200</tspan></text>
      <text id="_100" data-name="100" transform="translate(380 822)" fill="#2b2b2b" font-size="16" font-family="CircularStd-Book, Circular Std Book"><tspan x="0" y="0">100</tspan></text>
      <text id="_0" data-name="0" transform="translate(388 863)" fill="#2b2b2b" font-size="16" font-family="CircularStd-Book, Circular Std Book"><tspan x="0" y="0">0</tspan></text>
    </g>
    <g id="Group_5969" data-name="Group 5969">
      <text id="Nov_17" data-name="Nov 17" transform="translate(452 890)" fill="#2b2b2b" font-size="16" font-family="CircularStd-Book, Circular Std Book"><tspan x="0" y="0">Nov 17</tspan></text>
      <text id="Nov_18" data-name="Nov 18" transform="translate(571 890)" fill="#2b2b2b" font-size="16" font-family="CircularStd-Book, Circular Std Book"><tspan x="0" y="0">Nov 18</tspan></text>
      <text id="Nov_19" data-name="Nov 19" transform="translate(691 890)" fill="#2b2b2b" font-size="16" font-family="CircularStd-Book, Circular Std Book"><tspan x="0" y="0">Nov 19</tspan></text>
      <text id="Nov_20" data-name="Nov 20" transform="translate(811 890)" fill="#2b2b2b" font-size="16" font-family="CircularStd-Book, Circular Std Book"><tspan x="0" y="0">Nov 20</tspan></text>
      <text id="Nov_22" data-name="Nov 22" transform="translate(933 890)" fill="#2b2b2b" font-size="16" font-family="CircularStd-Book, Circular Std Book"><tspan x="0" y="0">Nov 22</tspan></text>
      <text id="Nov_23" data-name="Nov 23" transform="translate(1055 890)" fill="#2b2b2b" font-size="16" font-family="CircularStd-Book, Circular Std Book"><tspan x="0" y="0">Nov 23</tspan></text>
      <text id="Nov_24" data-name="Nov 24" transform="translate(1177 890)" fill="#2b2b2b" font-size="16" font-family="CircularStd-Book, Circular Std Book"><tspan x="0" y="0">Nov 24</tspan></text>
    </g>
    <g id="Group_5968" data-name="Group 5968" transform="translate(381 5)">
      <rect id="Rectangle_1045" data-name="Rectangle 1045" width="129" height="25" rx="5" transform="translate(428 852) rotate(-90)" fill="#a7a7a7"/>
      <rect id="Rectangle_1046" data-name="Rectangle 1046" width="159" height="25" rx="5" transform="translate(458 852) rotate(-90)" fill="#2b2b2b"/>
    </g>
    <g id="Group_5970" data-name="Group 5970" transform="translate(20 5)">
      <rect id="Rectangle_1045-2" data-name="Rectangle 1045" width="81" height="25" rx="5" transform="translate(428 852) rotate(-90)" fill="#a7a7a7"/>
      <rect id="Rectangle_1046-2" data-name="Rectangle 1046" width="73" height="25" rx="5" transform="translate(458 852) rotate(-90)" fill="#2b2b2b"/>
    </g>
    <g id="Group_5971" data-name="Group 5971" transform="translate(140 5)">
      <rect id="Rectangle_1045-3" data-name="Rectangle 1045" width="101" height="25" rx="5" transform="translate(428 852) rotate(-90)" fill="#a7a7a7"/>
      <rect id="Rectangle_1046-3" data-name="Rectangle 1046" width="124" height="25" rx="5" transform="translate(458 852) rotate(-90)" fill="#2b2b2b"/>
    </g>
    <g id="Group_5972" data-name="Group 5972" transform="translate(260 5)">
      <rect id="Rectangle_1045-4" data-name="Rectangle 1045" width="117" height="25" rx="5" transform="translate(428 852) rotate(-90)" fill="#a7a7a7"/>
      <rect id="Rectangle_1046-4" data-name="Rectangle 1046" width="174" height="25" rx="5" transform="translate(458 852) rotate(-90)" fill="#2b2b2b"/>
    </g>
    <g id="Group_5973" data-name="Group 5973" transform="translate(503)">
      <rect id="Rectangle_1045-5" data-name="Rectangle 1045" width="137" height="25" rx="5" transform="translate(428 852) rotate(-90)" fill="#a7a7a7"/>
      <rect id="Rectangle_1046-5" data-name="Rectangle 1046" width="117" height="25" rx="5" transform="translate(458 852) rotate(-90)" fill="#2b2b2b"/>
    </g>
    <g id="Group_5974" data-name="Group 5974" transform="translate(625 5)">
      <rect id="Rectangle_1045-6" data-name="Rectangle 1045" width="157" height="25" rx="5" transform="translate(428 852) rotate(-90)" fill="#a7a7a7"/>
      <rect id="Rectangle_1046-6" data-name="Rectangle 1046" width="179" height="25" rx="5" transform="translate(458 852) rotate(-90)" fill="#2b2b2b"/>
    </g>
    <g id="Group_5975" data-name="Group 5975" transform="translate(747 5)">
      <rect id="Rectangle_1045-7" data-name="Rectangle 1045" width="140" height="25" rx="5" transform="translate(428 852) rotate(-90)" fill="#a7a7a7"/>
      <rect id="Rectangle_1046-7" data-name="Rectangle 1046" width="153" height="25" rx="5" transform="translate(458 852) rotate(-90)" fill="#2b2b2b"/>
    </g>
  </g>
</svg>
