<svg xmlns="http://www.w3.org/2000/svg">
<defs>
<font id="icomoon" horiz-adv-x="1024">
<font-face units-per-em="1024" ascent="960" descent="-64"/>
<missing-glyph horiz-adv-x="1024"/>
<glyph unicode=" " horiz-adv-x="512" d=""/>
<glyph unicode="" glyph-name="orders-active" d="M582.195 526.438c0-21.606 17.254-39.168 38.4-39.168h141.722c21.146 0 38.4 17.562 38.4 39.168 0.006 0.244 0.009 0.531 0.009 0.819 0 21.208-17.192 38.4-38.4 38.4-0.003 0-0.006 0-0.009 0h-141.772c-0.003 0-0.006 0-0.009 0-21.208 0-38.4-17.192-38.4-38.4 0-0.288 0.003-0.575 0.009-0.862l-0.001 0.043zM286.003 176.896c-34.271 0.015-65.401 13.447-88.426 35.329l0.055-0.052c-23.401 22.133-38.804 52.51-41.544 86.463l-0.031 0.474-47.002 569.549-77.312 13.619c-18.217 3.721-31.728 19.616-31.728 38.666 0 2.202 0.181 4.362 0.528 6.466l-0.031-0.229c3.142 18.723 19.228 32.812 38.605 32.812 2.096 0 4.154-0.165 6.161-0.482l-0.222 0.029 122.010-18.739c17.152-3.174 30.208-17.766 31.744-35.533l9.728-117.043c1.536-16.742 14.899-29.338 31.181-29.338h690.893c30.106 0 51.046-10.138 72.192-35.021 24.166-28.365 22.528-68.403 19.456-89.805l-48.64-342.733c-9.114-65.229-64.768-114.432-129.434-114.432zM200.090 14.899c0 43.878 34.816 79.36 77.722 79.36 42.496 0 77.312-35.482 77.312-79.36 0-43.366-34.816-78.848-77.312-78.848-42.957 0-77.722 35.482-77.722 78.848zM775.578 14.899c0 43.878 34.816 79.36 77.824 79.36 42.445 0 77.21-35.482 77.21-79.36 0-43.366-34.816-78.848-77.21-78.848-43.008 0-77.824 35.482-77.824 78.848z"/>
<glyph unicode="" glyph-name="payment-active" horiz-adv-x="1138" d="M924.388 502.5c23.893 0 43.463-19.058 43.463-42.439 0-23.324-19.513-42.382-43.463-42.382h-18.716c-23.805 0.029-43.136 19.141-43.52 42.858v0.036c0 11.15 4.665 22.016 12.8 29.81 7.74 7.497 18.304 12.118 29.948 12.118 0.072 0 0.143 0 0.214-0.001h-0.011zM1137.721 383.602v144.043c-0.351 22.949-19.037 41.417-42.036 41.417-0.142 0-0.283-0.001-0.424-0.002h-198.179c-35.898-0.347-67.942-16.549-89.516-41.928l-0.141-0.17c-16.584-19.471-26.672-44.917-26.672-72.719 0-7.541 0.742-14.908 2.157-22.034l-0.119 0.716c12.743-53.362 60.871-90.624 117.191-90.624h195.3c23.040 0.084 41.77 18.416 42.494 41.292l0.002 0.067zM590.62 738.588c24.007 0 43.52-19.001 43.52-42.382 0-23.324-19.513-42.382-43.52-42.382h-321.081c-23.78 0.061-43.080 19.161-43.463 42.858v0.036c0.665 23.265 19.684 41.872 43.048 41.872 0.146 0 0.291-0.001 0.437-0.002h-0.022zM1055.346 16.27c53.931 52.565 82.432 129.82 82.432 223.516v17.692h-240.697c-111.502 0-202.297 88.462-202.297 197.234 0.007 54.725 22.74 104.139 59.274 139.32l0.061 0.058c36.691 35.784 86.9 57.857 142.264 57.857 0.245 0 0.491 0 0.736-0.001h-0.038v1.934h240.64c0 94.72-28.444 172.715-82.375 225.564-53.817 52.679-133.177 80.555-229.604 80.555h-513.707c-96.256 0-175.673-27.762-229.604-80.27-53.931-52.565-82.432-129.82-82.432-223.516v-416.54c0-93.639 28.501-170.894 82.432-223.46 53.931-52.452 133.348-80.213 229.604-80.213h513.707c96.256 0 175.616 27.762 229.604 80.27z"/>
<glyph unicode="" glyph-name="calendar-active" horiz-adv-x="922" d="M230.81 803.43l0.051-39.424c0-10.701 3.942-20.582 11.11-27.904 7.168-7.373 17.101-11.418 27.853-11.418 22.17 0 38.912 16.896 38.912 39.424l-0.102 41.37 300.339 0.41v-41.421c-0.006-0.245-0.009-0.533-0.009-0.821 0-21.293 17.261-38.554 38.554-38.554 0.147 0 0.294 0.001 0.441 0.002h-0.022c0.063 0 0.138-0.001 0.212-0.001 21.377 0 38.707 17.33 38.707 38.707 0 0.27-0.003 0.54-0.008 0.809l0.001-0.040-0.051 39.424c101.632-8.858 154.317-68.198 156.467-176.384v-17.92l-765.338-1.024-0.102 15.872c-0.154 108.544 51.354 168.653 152.986 178.893zM710.093 378.214c0.014-0.407 0.022-0.886 0.022-1.366 0-22.696-17.921-41.206-40.385-42.151l-0.086-0.003h-0.922c-0.124-0.001-0.271-0.002-0.418-0.002-22.702 0-41.159 18.174-41.617 40.766l-0.001 0.043v0.614c0 23.552 18.125 42.445 41.37 42.957h0.205c22.374 0 40.755-17.92 41.83-40.858zM459.93 419.328c22.938 0 41.318-17.92 41.882-40.858 1.024-23.194-16.896-43.008-39.834-44.083l-1.843-0.051c-22.69 0.218-41.077 18.337-41.727 40.9l-0.001 0.060c0 23.706 18.176 43.008 41.472 44.032v0.051zM251.546 417.536c23.040 0 41.472-17.92 41.984-40.858 0.029-0.581 0.045-1.262 0.045-1.946 0-23.18-18.716-41.988-41.861-42.137h-0.014c-22.629 0.248-40.952 18.338-41.573 40.851l-0.001 0.058c-0.002 0.168-0.004 0.366-0.004 0.565 0 23.28 18.28 42.291 41.269 43.463l0.105 0.004v0.051zM460.083 233.574c23.040 0 41.472-17.92 41.984-40.858 1.024-23.245-16.896-43.008-39.936-44.083l-1.843-0.051c-22.646 0.275-40.976 18.372-41.624 40.9l-0.001 0.060c0 23.552 18.176 42.957 41.37 44.032v0.051zM251.802 233.318c23.040 0 41.472-17.92 41.984-40.858 0.033-0.627 0.052-1.361 0.052-2.099 0-23.198-18.791-42.007-41.983-42.035h-0.003c-22.58 0.359-40.825 18.425-41.471 40.9l-0.001 0.060c-0.002 0.168-0.004 0.366-0.004 0.565 0 23.28 18.28 42.291 41.269 43.463l0.105 0.004v0.051zM668.314 233.318c23.706 0 43.008-19.456 43.008-43.418s-19.2-43.52-42.906-43.571c-23.361 0.822-41.992 19.937-42.035 43.413v0.004c-0.007 0.295-0.011 0.642-0.011 0.99 0 23.127 18.407 41.954 41.37 42.631l0.062 0.001zM659.046-63.488c162.15 0.256 262.758 99.789 262.554 259.789l-0.512 431.411c-0.102 71.731-22.374 133.427-64.358 178.432-41.472 44.288-100.25 70.656-170.035 76.134l-0.051 38.4c0.007 0.276 0.011 0.6 0.011 0.926 0 21.208-17.192 38.4-38.4 38.4-0.202 0-0.404-0.002-0.605-0.005h0.030c-0.128 0.002-0.279 0.002-0.43 0.002-10.635 0-20.269-4.283-27.272-11.218l0.003 0.003c-6.908-7.094-11.168-16.796-11.168-27.493 0-0.253 0.002-0.505 0.007-0.756l-0.001 0.038v-35.84l-300.288-0.461v35.84c0.009 0.307 0.014 0.667 0.014 1.029 0 21.208-17.192 38.4-38.4 38.4-0.221 0-0.441-0.002-0.661-0.006h0.033c-10.65 0-20.48-3.994-27.597-11.162-6.969-7.128-11.269-16.892-11.269-27.659 0-0.23 0.002-0.46 0.006-0.689v0.034l0.051-38.4c-69.683-6.4-127.898-33.28-168.294-77.824-40.96-45.056-62.464-107.008-62.413-179.354l0.512-426.342c0.154-78.848 24.781-145.101 71.27-191.437 46.438-46.234 112.64-70.656 191.437-70.656h0.512z"/>
<glyph unicode="" glyph-name="times-active" d="M532.48 669.696v-236.544l182.272-108.544c8.89-5.383 15.37-13.986 17.865-24.155l0.055-0.267c0.662-2.613 1.042-5.613 1.042-8.702 0-7.271-2.105-14.050-5.739-19.761l0.089 0.15c-6.745-11.367-18.954-18.867-32.914-18.867-7.329 0-14.174 2.067-19.986 5.649l0.165-0.094-200.704 119.808c-11.398 6.586-18.944 18.714-18.944 32.605 0 0.057 0 0.115 0 0.172v-0.009 258.56c0.285 21.092 17.308 38.115 38.373 38.4h0.027c21.197 0 38.4-17.203 38.4-38.4zM1024 238.643v418.304c0 181.197-116.48 303.053-289.792 303.053h-443.904c-173.619 0-290.304-121.856-290.304-303.104v-418.253c0-180.992 116.685-302.592 290.304-302.592h443.904c173.312 0 289.792 121.6 289.792 302.592z"/>
<glyph unicode="" glyph-name="dashboard-active" d="M298.496 580.608c13.67-8.653 21.504-24.525 19.968-40.448v-353.792c-2.056-21.623-20.125-38.402-42.112-38.402-0.135 0-0.27 0.001-0.405 0.002h0.021c-0.142-0.002-0.31-0.003-0.477-0.003-21.967 0-40.013 16.789-42.006 38.236l-0.013 0.167v353.792c-0.114 1.179-0.18 2.549-0.18 3.934 0 15.303 7.964 28.746 19.974 36.41l0.174 0.104c6.381 4.101 14.17 6.537 22.528 6.537s16.147-2.436 22.696-6.638l-0.168 0.101zM537.6 748.544c13.824-8.704 21.504-24.576 19.456-40.448v-521.728c-2.082-21.627-20.161-38.401-42.159-38.401-0.119 0-0.237 0-0.356 0.001h0.018c-21.991 0.212-40.034 16.836-42.478 38.201l-0.018 0.199v521.728c-0.108 1.147-0.169 2.48-0.169 3.828 0 15.332 7.956 28.805 19.965 36.517l0.173 0.104c6.373 4.079 14.148 6.502 22.488 6.502 0.014 0 0.028 0 0.042 0h-0.002c8.038 0 15.974-2.253 23.040-6.502zM772.608 394.752c13.824-8.704 21.453-24.166 19.968-40.448v-167.936c-2.462-21.564-20.505-38.188-42.474-38.4h-0.022c-0.114-0.001-0.249-0.002-0.384-0.002-21.987 0-40.056 16.779-42.099 38.231l-0.013 0.17v167.936c-0.208 1.557-0.327 3.358-0.327 5.186 0 14.855 7.839 27.878 19.606 35.16l0.177 0.102c6.56 4.072 14.516 6.49 23.037 6.502h0.003c7.936 0 15.77-2.253 22.528-6.554zM952.832 7.168c47.258 47.206 71.168 115.046 71.168 201.728v478.208c-0.256 86.733-24.269 154.624-71.322 201.728-47.155 47.206-115.046 71.168-201.626 71.168h-478.157c-86.63 0-154.522-23.962-201.728-71.168s-71.168-115.098-71.168-201.728v-478.208c0-86.682 23.962-154.522 71.168-201.728 47.206-47.258 115.098-71.168 201.728-71.168h478.208c86.63 0 154.522 23.91 201.728 71.168z"/>
<glyph unicode="" glyph-name="user-active" horiz-adv-x="1408" d="M341.76 458.048c13.137 0.039 25.985 1.155 38.495 3.263l-1.375-0.191c4.861 0.858 8.507 5.049 8.507 10.092 0 2.078-0.619 4.012-1.683 5.626l0.024-0.038c-39.441 57.788-62.978 129.163-62.978 206.035 0 0.466 0.001 0.932 0.003 1.398v-0.072c0 80 24.96 154.624 68.352 215.808 1.408 1.92 2.368 4.864 1.024 7.040-1.277 1.635-3.101 2.791-5.194 3.191l-0.054 0.009c-13.64 2.929-29.312 4.606-45.375 4.608h-0.001c-144.384 0-257.792-136.576-219.136-288.896 25.6-100.48 116.8-167.872 219.392-167.872zM1066.24 458.048c102.656 0 193.92 67.392 219.392 167.872 38.656 152.256-74.752 288.896-219.2 288.896-15.68 0-30.72-1.664-45.312-4.672-1.984-0.448-4.16-1.344-5.312-3.136-1.28-2.176-0.32-5.12 1.088-7.040 42.747-59.712 68.353-134.23 68.353-214.729 0-0.357-0.001-0.714-0.002-1.071v0.055c0.001-0.372 0.002-0.812 0.002-1.253 0-76.917-23.537-148.337-63.8-207.451l0.822 1.279c-1.070-1.586-1.709-3.541-1.709-5.644 0-5.025 3.643-9.2 8.432-10.027l0.061-0.009c10.948-1.955 23.551-3.073 36.415-3.073 0.248 0 0.496 0 0.744 0.001h-0.038zM700.8 418.176c0.040 0 0.086 0 0.133 0 148.702 0 269.248 120.546 269.248 269.248 0 0.585-0.002 1.17-0.006 1.754v-0.090c0.004 0.513 0.006 1.121 0.006 1.728 0 148.666-120.518 269.184-269.184 269.184-0.092 0-0.184 0-0.276 0h0.014c-0.078 0-0.17 0-0.262 0-148.631 0-269.12-120.489-269.12-269.12 0-0.63 0.002-1.26 0.006-1.889l-0.001 0.096c-0.003-0.494-0.005-1.079-0.005-1.664 0-148.702 120.546-269.248 269.248-269.248 0.069 0 0.139 0 0.208 0h-0.011zM175.232 70.976c6.848 0 11.968 6.208 11.2 13.312-18.816 177.088 131.136 261.12 169.984 280.32 1.6 0.96 1.92 2.24 1.792 3.072-0.128 0.512-0.768 1.472-1.984 1.664-84.096 1.536-174.208-9.984-207.616-18.112-70.656-13.952-117.12-42.24-136.32-83.52-7.746-15.611-12.279-33.996-12.279-53.44s4.532-37.829 12.599-54.156l-0.32 0.716c29.44-63.936 124.416-84.416 161.28-89.728 0.498-0.078 1.074-0.124 1.66-0.128h0.004zM1232.768 70.976c0.005 0 0.010 0 0.015 0 0.604 0 1.198 0.047 1.777 0.136l-0.065-0.008c36.928 5.312 131.84 25.856 161.28 89.728 7.685 15.623 12.18 34.007 12.18 53.44s-4.495 37.817-12.501 54.168l0.322-0.728c-19.2 41.216-65.728 69.568-136.32 83.456-33.408 8.256-123.648 19.776-207.616 18.176-1.28-0.128-1.92-1.088-2.048-1.664-0.192-0.768 0.128-2.112 1.792-2.944 38.848-19.392 188.8-103.36 169.92-280.512-0.704-7.040 4.48-13.248 11.264-13.248zM700.736-64c220.8 0 407.040 36.16 407.040 175.36 0 139.328-187.456 174.144-407.040 174.144-220.8 0-407.040-36.032-407.040-175.36 0-139.264 187.456-174.080 407.040-174.080z"/>
<glyph unicode="" glyph-name="help-active" d="M556.544 642.048v-226.304c-1.175-23.831-20.783-42.709-44.8-42.709s-43.625 18.877-44.796 42.604l-0.004 0.105v226.304c0 24.474 20.634 45.056 45.056 45.056 24.576 0 44.544-20.173 44.544-45.056zM557.056 253.44c0-24.832-19.968-45.056-44.544-45.056-24.872 0.029-45.027 20.184-45.056 45.053v0.003c1.175 23.831 20.783 42.709 44.8 42.709s43.625-18.877 44.796-42.604l0.004-0.105zM874.189 86.016c92.545 92.141 149.813 219.648 149.813 360.531 0 0.511-0.001 1.021-0.002 1.532v-0.079c0 136.755-53.248 265.318-149.811 361.984-92.137 92.667-219.707 150.018-360.672 150.018-0.533 0-1.067-0.001-1.599-0.002h0.082c-282.317 0-512-229.581-512-512 0-282.266 229.683-512 512-512 0.444-0.001 0.97-0.002 1.496-0.002 140.971 0 268.548 57.351 360.669 149.995l0.023 0.024z"/>
<glyph unicode="" glyph-name="products-active" horiz-adv-x="922" d="M637.44 715.571c0-3.891 0.768-7.834 2.202-11.571h-358.963c0.331 1.74 0.521 3.74 0.521 5.786s-0.189 4.046-0.552 5.986l0.031-0.201c0.291 98.24 79.997 177.766 178.278 177.766 0.036 0 0.072 0 0.109 0h-0.005c0.031 0 0.067 0 0.103 0 98.28 0 177.987-79.526 178.278-177.739v-0.028zM357.376 486.912c0-25.651-20.275-46.592-45.21-46.592-25.084 0.401-45.265 20.83-45.265 45.972 0 0.218 0.002 0.436 0.005 0.653v-0.033c0 25.702 20.275 46.592 45.261 46.592 24.934 0 45.21-20.89 45.21-46.592zM653.824 486.912c0-25.651-20.326-46.592-45.312-46.592-25.062 0.43-45.214 20.847-45.214 45.971 0 0.218 0.002 0.436 0.005 0.654v-0.033c0 25.702 20.275 46.592 45.21 46.592 24.986 0 45.261-20.89 45.261-46.592zM870.81 10.445c43.827 50.432 59.392 123.29 46.387 216.576l-39.424 317.184c-11.264 53.094-32.41 94.208-62.976 122.317-24.341 23.068-57.273 37.282-93.524 37.376h-8.057c1.433 3.154 2.268 6.84 2.268 10.721 0 0.317-0.006 0.633-0.017 0.947l0.001-0.046h1.331c-5.813 136.236-117.67 244.482-254.809 244.482-0.347 0-0.693-0.001-1.039-0.002h0.053c-0.278 0.001-0.606 0.002-0.935 0.002-137.11 0-248.944-108.223-254.74-243.906l-0.018-0.524c-0.308-1.739-0.484-3.742-0.484-5.786s0.176-4.046 0.514-5.993l-0.030 0.208h-3.942c-35.789 0-68.608-12.544-95.027-36.25-31.078-27.853-51.661-69.427-61.133-123.494l-39.834-317.133c-14.182-101.581-0.717-174.387 41.216-222.566 40.090-46.131 106.394-68.557 202.65-68.557h424.448c86.528 0 154.675 25.754 197.12 74.496z"/>
<glyph unicode="" glyph-name="category-active" d="M130.048 523.264c-71.68 0-130.048 58.368-130.048 131.072v174.592c0 72.141 58.368 131.072 130.048 131.072h173.056c72.192 0 130.048-58.88 130.048-131.123v-174.541c0-72.704-57.856-131.072-130.048-131.072zM720.896 523.264c-72.192 0-130.048 58.368-130.048 131.072v174.592c-0.001 0.168-0.001 0.366-0.001 0.564 0 71.916 58.169 130.247 130.024 130.508h173.081c71.68 0 130.048-58.88 130.048-131.123v-174.541c0-72.704-58.368-131.072-130.048-131.072zM130.048-64c-71.68 0-130.048 58.88-130.048 131.072v174.592c-0.001 0.168-0.001 0.366-0.001 0.564 0 71.927 58.163 130.269 130.021 130.559h173.084c72.192 0 130.048-58.368 130.048-131.123v-174.49c0-72.192-57.856-131.072-130.048-131.072zM720.896-64c-72.192 0-130.048 58.88-130.048 131.072v174.592c0 72.704 57.856 131.123 130.048 131.123h173.056c71.68 0 130.048-58.368 130.048-131.123v-174.49c0-72.192-58.368-131.072-130.048-131.072z"/>
<glyph unicode="" glyph-name="arrow_down" horiz-adv-x="1813" d="M905.846-64c-0.164-0.001-0.357-0.001-0.55-0.001-32.447 0-61.799 13.256-82.934 34.648l-0.011 0.012-787.692 787.692c-19.648 21.043-31.711 49.387-31.711 80.548 0 65.255 52.899 118.154 118.154 118.154 31.162 0 59.506-12.063 80.617-31.775l-0.069 0.063 704.197-704.197 705.772 704.197c21.043 19.648 49.387 31.711 80.548 31.711 65.255 0 118.154-52.899 118.154-118.154 0-31.162-12.063-59.506-31.775-80.617l0.063 0.069-787.692-787.692c-20.414-21.415-49.159-34.732-81.015-34.732-1.426 0-2.847 0.027-4.26 0.080l0.204-0.006z"/>
<glyph unicode="" glyph-name="calendar" horiz-adv-x="929" d="M676.316 421.805v0c-19.051 0-38.102-14.288-38.102-38.102s14.288-38.102 38.102-38.102 38.102 14.288 38.102 38.102-19.051 38.102-38.102 38.102zM466.753 421.805v0c-19.051 0-38.102-14.288-38.102-38.102s14.288-38.102 38.102-38.102 38.102 14.288 38.102 38.102-19.051 38.102-38.102 38.102zM252.428 421.805v0c-19.051 0-38.102-14.288-38.102-38.102s14.288-38.102 38.102-38.102 38.102 14.288 38.102 38.102-19.051 38.102-38.102 38.102zM676.316 236.056v0c-19.051 0-38.102-14.288-38.102-38.102s14.288-38.102 38.102-38.102 38.102 14.288 38.102 38.102-19.051 38.102-38.102 38.102zM466.753 236.056v0c-19.051 0-38.102-14.288-38.102-38.102s14.288-38.102 38.102-38.102 38.102 14.288 38.102 38.102-19.051 38.102-38.102 38.102zM252.428 236.056v0c-19.051 0-38.102-14.288-38.102-38.102s14.288-38.102 38.102-38.102 38.102 14.288 38.102 38.102-19.051 38.102-38.102 38.102zM862.065 812.353c-42.865 42.865-100.019 61.916-166.698 66.679v42.865c0 19.051-14.288 38.102-38.102 38.102s-38.102-14.288-38.102-38.102v-38.102h-309.581v38.102c0 23.814-19.051 38.102-38.102 38.102s-33.34-14.288-33.34-38.102v-42.865c-147.647-4.763-238.14-100.019-238.14-252.428v-428.651c0-161.935 100.019-261.953 261.953-261.953h404.837c161.935 0 261.953 100.019 261.953 257.191v433.414c0 76.205-23.814 142.884-66.679 185.749zM238.14 812.353v-42.865c0-19.051 14.288-38.102 38.102-38.102s33.34 14.288 33.34 38.102v47.628h309.581v-47.628c0-19.051 14.288-38.102 38.102-38.102s38.102 14.288 38.102 38.102v42.865c47.628-4.763 90.493-19.051 119.070-47.628 33.34-33.34 47.628-76.205 47.628-138.121v-19.051h-790.623v19.051c0 109.544 57.153 176.223 166.698 185.749zM666.791 7.442h-404.837c-123.833 0-190.512 66.679-190.512 190.512v338.158h785.86v-342.921c0-119.070-66.679-185.749-190.512-185.749z"/>
<glyph unicode="" glyph-name="category" d="M871.591 498.009h-157.172c-42.865 0-80.967 14.288-109.544 42.865s-42.865 66.679-42.865 109.544v157.172c0 42.865 14.288 80.967 42.865 109.544 33.34 28.577 71.442 42.865 109.544 42.865 0 0 0 0 0 0h157.172c85.73 0 152.409-71.442 152.409-152.409v-157.172c0-85.73-66.679-152.409-152.409-152.409zM714.419 888.558c-23.814 0-42.865-9.526-57.153-23.814s-23.814-38.102-23.814-57.153v-157.172c0-23.814 9.526-42.865 23.814-57.153s38.102-23.814 57.153-23.814h157.172c42.865 0 80.967 38.102 80.967 80.967v157.172c0 42.865-38.102 80.967-80.967 80.967h-157.172zM152.409 498.009c-42.865 0-80.967 14.288-109.544 42.865s-42.865 66.679-42.865 109.544v157.172c0 80.967 66.679 152.409 152.409 152.409 0 0 0 0 0 0h157.172c42.865 0 80.967-14.288 109.544-42.865s42.865-66.679 42.865-109.544v-157.172c0-42.865-14.288-80.967-42.865-109.544-33.34-28.577-71.442-42.865-109.544-42.865h-157.172zM152.409 888.558c-42.865 0-80.967-38.102-80.967-80.967v-157.172c0-23.814 9.526-42.865 23.814-57.153s38.102-23.814 57.153-23.814h157.172c23.814 0 42.865 9.526 57.153 23.814s23.814 33.34 23.814 57.153v157.172c0 19.051-9.526 42.865-23.814 57.153-19.051 14.288-38.102 23.814-57.153 23.814h-157.172zM152.409-64c-42.865 0-80.967 14.288-109.544 42.865-28.577 33.34-42.865 71.442-42.865 109.544v157.172c0 85.73 66.679 152.409 152.409 152.409 0 0 0 0 0 0h157.172c42.865 0 80.967-14.288 109.544-42.865s42.865-66.679 42.865-109.544v-157.172c0-42.865-14.288-80.967-42.865-109.544s-66.679-42.865-109.544-42.865h-157.172zM152.409 326.549c-42.865 0-80.967-38.102-80.967-80.967v-157.172c0-23.814 9.526-42.865 23.814-57.153s33.34-23.814 57.153-23.814h157.172c23.814 0 42.865 9.526 57.153 23.814s23.814 38.102 23.814 57.153v157.172c0 23.814-9.526 42.865-23.814 57.153s-38.102 23.814-57.153 23.814h-157.172zM714.419-64c-42.865 0-80.967 14.288-109.544 42.865s-42.865 66.679-42.865 109.544v157.172c0 85.73 66.679 152.409 152.409 152.409 0 0 0 0 0 0h157.172c85.73 0 152.409-66.679 152.409-152.409v-157.172c0-85.73-66.679-152.409-152.409-152.409h-157.172zM714.419 326.549c-23.814 0-42.865-9.526-57.153-23.814s-23.814-38.102-23.814-57.153v-157.172c0-23.814 9.526-42.865 23.814-57.153s38.102-23.814 57.153-23.814h157.172c42.865 0 80.967 38.102 80.967 80.967v157.172c0 42.865-38.102 80.967-80.967 80.967h-157.172z"/>
<glyph unicode="" glyph-name="chat" d="M252.428 436.093c0 28.577 23.814 57.153 52.391 57.153s57.153-23.814 57.153-52.391c0 0 0 0 0-4.763 0-28.577-28.577-57.153-57.153-52.391-28.577 0-52.391 23.814-52.391 52.391zM466.753 436.093c0 28.577 28.577 52.391 57.153 52.391s52.391-23.814 52.391-52.391c0-28.577-28.577-52.391-57.153-52.391-28.577 4.763-47.628 23.814-52.391 52.391zM685.842 436.093c0 28.577 28.577 57.153 57.153 52.391 28.577 0 52.391-23.814 52.391-52.391s-28.577-52.391-57.153-52.391c-28.577 0-52.391 23.814-52.391 52.391zM514.381-64c-90.493 0-180.986 23.814-252.428 66.679-23.814 14.288-33.34 19.051-42.865 14.288l-95.256-28.577c-23.814-9.526-47.628 0-66.679 14.288-19.051 19.051-23.814 42.865-19.051 66.679l33.34 109.544c0 4.763 0 9.526 0 14.288-47.628 85.73-71.442 171.46-71.442 257.191 0 281.005 228.614 509.619 514.381 509.619 281.005 0 509.619-228.614 509.619-509.619 0-323.87-261.953-514.381-509.619-514.381zM223.851 88.409c28.577 0 52.391-14.288 71.442-23.814 61.916-38.102 138.121-57.153 214.326-57.153 214.326 0 438.177 166.698 438.177 442.94 0 242.902-195.274 438.177-438.177 438.177s-442.94-200.037-442.94-442.94c0-71.442 19.051-147.647 61.916-219.088 14.288-19.051 14.288-47.628 4.763-71.442l-23.814-100.019 90.493 28.577c4.763 4.763 14.288 4.763 23.814 4.763z"/>
<glyph unicode="" glyph-name="checkbox_white" d="M732.16-64h-440.32c-174.080 0-291.84 122.88-291.84 302.080v419.84c0 179.2 117.76 302.080 291.84 302.080h445.44c168.96 0 286.72-122.88 286.72-302.080v-419.84c0-179.2-117.76-302.080-291.84-302.080zM291.84 883.2c-128 0-215.040-87.040-215.040-225.28v-419.84c0-138.24 81.92-225.28 215.040-225.28h445.44c128 0 215.040 87.040 215.040 225.28v419.84c0 138.24-81.92 225.28-215.040 225.28h-445.44zM450.56 289.28c-10.24 0-20.48 5.12-25.6 10.24l-122.88 122.88c-15.36 15.36-15.36 40.96 0 56.32s40.96 15.36 56.32 0l92.16-92.16 215.040 209.92c15.36 15.36 40.96 15.36 56.32 0s15.36-40.96 0-56.32l-240.64-240.64c-10.24-5.12-20.48-10.24-30.72-10.24z"/>
<glyph unicode="" glyph-name="close" d="M614.4 448l387.657 387.657c29.257 29.257 29.257 73.143 0 102.4s-73.143 29.257-102.4 0l-387.657-387.657-387.657 387.657c-29.257 29.257-73.143 29.257-102.4 0s-29.257-73.143 0-102.4l387.657-387.657-387.657-387.657c-29.257-29.257-29.257-73.143 0-102.4 14.629-14.629 29.257-21.943 51.2-21.943s36.571 7.314 51.2 21.943l387.657 387.657 387.657-387.657c14.629-14.629 36.571-21.943 51.2-21.943s36.571 7.314 51.2 21.943c29.257 29.257 29.257 73.143 0 102.4l-387.657 387.657z"/>
<glyph unicode="" glyph-name="dashboard" d="M290.53 169.377c-19.051 0-38.102 14.288-38.102 38.102v323.87c0 19.051 14.288 38.102 38.102 38.102s38.102-14.288 38.102-38.102v-328.633c0-14.288-19.051-33.34-38.102-33.34zM514.381 169.377c-19.051 0-38.102 14.288-38.102 38.102v481.042c0 19.051 14.288 38.102 38.102 38.102s38.102-14.288 38.102-38.102v-481.042c-4.763-19.051-19.051-38.102-38.102-38.102zM733.47 169.377c-19.051 0-38.102 14.288-38.102 38.102v152.409c0 19.051 14.288 38.102 38.102 38.102s38.102-14.288 38.102-38.102v-152.409c-4.763-19.051-19.051-38.102-38.102-38.102zM733.47-64h-442.94c-176.223 0-290.53 119.070-290.53 300.056v423.888c0 180.986 114.307 300.056 290.53 300.056h447.702c171.46 0 290.53-119.070 290.53-300.056v-419.126c-4.763-185.749-119.070-304.819-295.293-304.819zM290.53 888.558c-133.358 0-219.088-90.493-219.088-228.614v-419.126c0-138.121 85.73-228.614 219.088-228.614h447.702c133.358 0 219.088 90.493 219.088 228.614v419.126c0 138.121-85.73 228.614-219.088 228.614h-447.702z"/>
<glyph unicode="" glyph-name="drop" horiz-adv-x="451" d="M81.92 509.44c-45.056 0-81.92 36.864-81.92 81.92s36.864 81.92 81.92 81.92 81.92-36.864 81.92-81.92-36.864-81.92-81.92-81.92zM81.92 591.36v0 0zM81.92 796.16c-45.056 0-81.92 36.864-81.92 81.92s36.864 81.92 81.92 81.92 81.92-36.864 81.92-81.92-36.864-81.92-81.92-81.92zM81.92 878.080v0 0zM81.92 222.72c-45.056 0-81.92 36.864-81.92 81.92s36.864 81.92 81.92 81.92 81.92-36.864 81.92-81.92-36.864-81.92-81.92-81.92zM81.92 304.64v0 0zM81.92 304.64v0 0zM81.92 304.64v0 0zM81.92 304.64v0 0zM81.92 304.64v0 0zM81.92 304.64v0 0zM81.92 304.64v0 0zM81.92 304.64v0 0zM368.64 509.44c-45.056 0-81.92 36.864-81.92 81.92s36.864 81.92 81.92 81.92 81.92-36.864 81.92-81.92-36.864-81.92-81.92-81.92zM368.64 591.36v0 0zM368.64 591.36v0 0zM368.64 591.36v0 0zM368.64 591.36v0 0zM368.64 591.36v0 0zM368.64 591.36v0 0zM368.64 591.36v0 0zM368.64 591.36v0 0zM368.64 796.16c-45.056 0-81.92 36.864-81.92 81.92s36.864 81.92 81.92 81.92 81.92-36.864 81.92-81.92-36.864-81.92-81.92-81.92zM368.64 878.080v0 0zM368.64 878.080v0 0zM368.64 878.080v0 0zM368.64 878.080v0 0zM368.64 878.080v0 0zM368.64 878.080v0 0zM368.64 878.080v0 0zM368.64 878.080v0 0zM368.64 222.72c-45.056 0-81.92 36.864-81.92 81.92s36.864 81.92 81.92 81.92 81.92-36.864 81.92-81.92-36.864-81.92-81.92-81.92zM368.64 304.64v0 0zM81.92-64c-45.056 0-81.92 36.864-81.92 81.92s36.864 81.92 81.92 81.92 81.92-36.864 81.92-81.92-36.864-81.92-81.92-81.92zM81.92 17.92v0 0zM81.92 17.92v0 0zM81.92 17.92v0 0zM81.92 17.92v0 0zM81.92 17.92v0 0zM81.92 17.92v0 0zM81.92 17.92v0 0zM81.92 17.92v0 0zM368.64-64c-45.056 0-81.92 36.864-81.92 81.92s36.864 81.92 81.92 81.92 81.92-36.864 81.92-81.92-36.864-81.92-81.92-81.92zM368.64 17.92v0 0z"/>
<glyph unicode="" glyph-name="edit" d="M48.242-39.879l-45.284 196.267c-7.851 36.124 0 73.387 22.926 102.172l354.418 458.638c3.289 3.93 8.196 6.411 13.683 6.411 3.897 0 7.501-1.252 10.433-3.375l-0.052 0.036 149.163-118.67c9.671-7.964 22.926-12.231 36.807-10.411 26.553 3.557 46.817 26.067 46.817 53.31 0 2.123-0.123 4.217-0.362 6.276l0.024-0.25c-1.969 14.385-8.791 26.9-18.733 36.088l-0.040 0.037-144.725 116.167c-4.954 3.974-8.099 10.027-8.099 16.814 0 4.957 1.677 9.522 4.495 13.158l-0.037-0.049 55.979 72.818c51.94 66.674 142.507 72.818 215.609 14.677l83.854-66.674c34.418-26.908 57.344-62.35 65.195-99.669 9.102-41.017-0.569-81.351-27.762-116.167l-499.826-646.428c-21.758-27.942-55.202-45.902-92.863-46.477l-199.319-2.39c-0.038 0-0.083 0-0.128 0-10.752 0-19.762 7.457-22.141 17.481l-0.031 0.155zM641.707-64c-31.687 0-57.458 26.055-57.458 58.197s25.771 58.254 57.458 58.254h324.836c31.687 0 57.458-26.169 57.458-58.254 0-32.142-25.771-58.197-57.458-58.197z"/>
<glyph unicode="" glyph-name="friends" horiz-adv-x="1408" d="M341.76 458.048c13.137 0.039 25.985 1.155 38.495 3.263l-1.375-0.191c4.861 0.858 8.507 5.049 8.507 10.092 0 2.078-0.619 4.012-1.683 5.626l0.024-0.038c-39.441 57.788-62.978 129.163-62.978 206.035 0 0.466 0.001 0.932 0.003 1.398v-0.072c0 80 24.96 154.624 68.352 215.808 1.408 1.92 2.368 4.864 1.024 7.040-1.277 1.635-3.101 2.791-5.194 3.191l-0.054 0.009c-13.64 2.929-29.312 4.606-45.375 4.608h-0.001c-144.384 0-257.792-136.576-219.136-288.896 25.6-100.48 116.8-167.872 219.392-167.872zM1066.24 458.048c102.656 0 193.92 67.392 219.392 167.872 38.656 152.256-74.752 288.896-219.2 288.896-15.68 0-30.72-1.664-45.312-4.672-1.984-0.448-4.16-1.344-5.312-3.136-1.28-2.176-0.32-5.12 1.088-7.040 42.747-59.712 68.353-134.23 68.353-214.729 0-0.357-0.001-0.714-0.002-1.071v0.055c0.001-0.372 0.002-0.812 0.002-1.253 0-76.917-23.537-148.337-63.8-207.451l0.822 1.279c-1.070-1.586-1.709-3.541-1.709-5.644 0-5.025 3.643-9.2 8.432-10.027l0.061-0.009c10.948-1.955 23.551-3.073 36.415-3.073 0.248 0 0.496 0 0.744 0.001h-0.038zM700.8 418.176c0.040 0 0.086 0 0.133 0 148.702 0 269.248 120.546 269.248 269.248 0 0.585-0.002 1.17-0.006 1.754v-0.090c0.004 0.513 0.006 1.121 0.006 1.728 0 148.666-120.518 269.184-269.184 269.184-0.092 0-0.184 0-0.276 0h0.014c-0.078 0-0.17 0-0.262 0-148.631 0-269.12-120.489-269.12-269.12 0-0.63 0.002-1.26 0.006-1.889l-0.001 0.096c-0.003-0.494-0.005-1.079-0.005-1.664 0-148.702 120.546-269.248 269.248-269.248 0.069 0 0.139 0 0.208 0h-0.011zM175.232 70.976c6.848 0 11.968 6.208 11.2 13.312-18.816 177.088 131.136 261.12 169.984 280.32 1.6 0.96 1.92 2.24 1.792 3.072-0.128 0.512-0.768 1.472-1.984 1.664-84.096 1.536-174.208-9.984-207.616-18.112-70.656-13.952-117.12-42.24-136.32-83.52-7.746-15.611-12.279-33.996-12.279-53.44s4.532-37.829 12.599-54.156l-0.32 0.716c29.44-63.936 124.416-84.416 161.28-89.728 0.498-0.078 1.074-0.124 1.66-0.128h0.004zM1232.768 70.976c0.005 0 0.010 0 0.015 0 0.604 0 1.198 0.047 1.777 0.136l-0.065-0.008c36.928 5.312 131.84 25.856 161.28 89.728 7.685 15.623 12.18 34.007 12.18 53.44s-4.495 37.817-12.501 54.168l0.322-0.728c-19.2 41.216-65.728 69.568-136.32 83.456-33.408 8.256-123.648 19.776-207.616 18.176-1.28-0.128-1.92-1.088-2.048-1.664-0.192-0.768 0.128-2.112 1.792-2.944 38.848-19.392 188.8-103.36 169.92-280.512-0.704-7.040 4.48-13.248 11.264-13.248zM700.736-64c220.8 0 407.040 36.16 407.040 175.36 0 139.328-187.456 174.144-407.040 174.144-220.8 0-407.040-36.032-407.040-175.36 0-139.264 187.456-174.080 407.040-174.080z"/>
<glyph unicode="" glyph-name="help" d="M556.544 642.048v-226.304c-1.175-23.831-20.783-42.709-44.8-42.709s-43.625 18.877-44.796 42.604l-0.004 0.105v226.304c0 24.474 20.634 45.056 45.056 45.056 24.576 0 44.544-20.173 44.544-45.056zM557.056 253.44c0-24.832-19.968-45.056-44.544-45.056-24.872 0.029-45.027 20.184-45.056 45.053v0.003c1.175 23.831 20.783 42.709 44.8 42.709s43.625-18.877 44.796-42.604l0.004-0.105zM874.189 86.016c92.545 92.141 149.813 219.648 149.813 360.531 0 0.511-0.001 1.021-0.002 1.532v-0.079c0 136.755-53.248 265.318-149.811 361.984-92.137 92.667-219.707 150.018-360.672 150.018-0.533 0-1.067-0.001-1.599-0.002h0.082c-282.317 0-512-229.581-512-512 0-282.266 229.683-512 512-512 0.444-0.001 0.97-0.002 1.496-0.002 140.971 0 268.548 57.351 360.669 149.995l0.023 0.024z"/>
<glyph unicode="" glyph-name="info_circle" d="M508.564-64c-137.45 0-261.154 48.107-357.369 144.322s-151.195 226.792-151.195 364.242c0 281.772 219.919 515.436 501.691 515.436h13.745c281.772 0 508.564-233.664 508.564-515.436-6.872-281.772-226.792-501.691-515.436-508.564 6.872 0 6.872 0 0 0zM515.436 891.275h-6.872c-247.409 0-439.839-206.174-439.839-446.711 0-116.832 48.107-226.792 130.577-309.262s192.43-130.577 316.134-123.705v0c240.537 0 432.966 192.43 439.839 439.839 0 233.664-192.43 439.839-439.839 439.839zM515.436 217.772c-20.617 0-34.362 13.745-34.362 34.362v226.792c0 20.617 13.745 34.362 34.362 34.362s34.362-13.745 34.362-34.362v-226.792c0-20.617-13.745-34.362-34.362-34.362zM515.436 609.503v0c-20.617 0-34.362 13.745-34.362 34.362s13.745 34.362 34.362 34.362 34.362-13.745 34.362-34.362-13.745-34.362-34.362-34.362z"/>
<glyph unicode="" glyph-name="location" horiz-adv-x="874" d="M434.424-64c-20.687 0-36.202 5.172-56.889 20.687-103.434 67.232-196.525 155.152-268.929 253.414-67.232 87.919-103.434 196.525-108.606 310.303 0 0 0 0 0 5.172 0 237.899 196.525 434.424 434.424 434.424 0 0 0 0 0 0 118.949 0 227.556-46.545 310.303-129.293s129.293-191.354 124.121-310.303c-5.172-175.838-103.434-320.646-191.354-408.566-56.889-62.061-124.121-113.778-191.354-155.152-10.343-10.343-31.030-20.687-51.717-20.687zM434.424 882.424c-196.525 0-356.848-160.323-356.848-356.848 0 0 0 0 0 0v0c5.172-93.091 36.202-186.182 98.263-268.929 72.404-93.091 155.152-170.667 253.414-237.899 0 0 5.172 0 5.172-5.172 5.172-5.172 10.343-5.172 10.343 0 0 0 5.172 0 5.172 5.172 67.232 41.374 124.121 93.091 181.010 144.808 77.576 77.576 165.495 206.869 170.667 351.677 0 98.263-36.202 191.354-103.434 258.586s-165.495 108.606-263.758 108.606c0 0 0 0 0 0zM434.424 349.737c-93.091 0-165.495 72.404-165.495 165.495s72.404 165.495 165.495 165.495 165.495-72.404 165.495-165.495c0-87.919-72.404-165.495-165.495-165.495zM434.424 608.323c-46.545 0-87.919-41.374-87.919-87.919s41.374-87.919 87.919-87.919 87.919 41.374 87.919 87.919c0 46.545-36.202 87.919-87.919 87.919z"/>
<glyph unicode="" d="M0 732.314c0 125.491 103.936 227.686 231.68 227.686h253.952c127.539 0 231.168-101.888 231.168-227.174v-569.139c0-125.542-103.936-227.686-231.731-227.686h-253.901c-127.488 0-231.168 101.888-231.168 227.174v48.128z"/>
<glyph unicode="" d="M1012.685 475.904l-145.715 148.992c-6.858 7.071-16.448 11.46-27.062 11.46-10.689 0-20.339-4.451-27.198-11.6l-0.012-0.013c-6.94-7.212-11.215-17.033-11.215-27.852 0-10.845 4.295-20.687 11.277-27.917l-0.011 0.012 79.872-81.562h-506.112c-21.271-0.287-38.403-17.597-38.403-38.909 0-0.181 0.001-0.362 0.004-0.543v0.027c0-21.811 17.203-39.424 38.4-39.424h506.112l-79.872-81.562c-6.971-7.218-11.266-17.060-11.266-27.905 0-10.819 4.275-20.639 11.227-27.865l-0.012 0.013c6.877-7.142 16.509-11.588 27.181-11.622h0.007c10.645 0.021 20.257 4.428 27.127 11.51l0.009 0.010 145.664 148.89c7.009 7.211 11.33 17.066 11.33 27.93s-4.321 20.719-11.339 27.939l0.009-0.009z"/>
<glyph unicode="" glyph-name="more" horiz-adv-x="228" d="M113.778 334.222c-62.578 0-113.778 51.2-113.778 113.778s51.2 113.778 113.778 113.778c62.578 0 113.778-51.2 113.778-113.778s-51.2-113.778-113.778-113.778zM113.778 448v0 0zM113.778 732.444c-62.578 0-113.778 51.2-113.778 113.778s51.2 113.778 113.778 113.778c62.578 0 113.778-51.2 113.778-113.778s-51.2-113.778-113.778-113.778zM113.778 846.222v0 0zM113.778-64c-62.578 0-113.778 51.2-113.778 113.778s51.2 113.778 113.778 113.778c62.578 0 113.778-51.2 113.778-113.778s-51.2-113.778-113.778-113.778zM113.778 49.778v0 0zM113.778 49.778v0 0zM113.778 49.778v0 0zM113.778 49.778v0 0zM113.778 49.778v0 0zM113.778 49.778v0 0zM113.778 49.778v0 0zM113.778 49.778v0 0z"/>
<glyph unicode="" glyph-name="notification" horiz-adv-x="881" d="M438.177 136.037c-76.205 0-157.172 4.763-233.377 14.288-61.916 4.763-114.307 33.34-157.172 76.205-33.34 38.102-52.391 90.493-47.628 138.121v9.526c0 38.102 14.288 76.205 33.34 104.781 0 0 0 4.763 4.763 4.763 23.814 23.814 38.102 57.153 47.628 90.493 0 33.34 0 61.916 4.763 95.256 14.288 180.986 190.512 290.53 347.684 290.53s338.158-109.544 352.447-290.53c0-19.051 0-38.102 0-52.391s0-28.577 0-42.865c9.526-33.34 23.814-66.679 47.628-90.493 0 0 0-4.763 4.763-4.763 19.051-33.34 33.34-66.679 33.34-104.781v-9.526c0-47.628-14.288-100.019-47.628-138.121-42.865-47.628-100.019-71.442-161.935-76.205-71.442-9.526-147.647-14.288-228.614-14.288zM90.493 436.093c-14.288-19.051-19.051-42.865-19.051-66.679v-9.526c0 0 0 0 0 0 0-33.34 9.526-66.679 33.34-90.493 28.577-28.577 66.679-47.628 109.544-52.391 147.647-14.288 300.056-14.288 452.465 0 42.865 4.763 85.73 23.814 114.307 52.391 19.051 23.814 33.34 57.153 28.577 90.493v9.526c0 23.814-9.526 42.865-19.051 61.916-33.34 33.34-52.391 80.967-61.916 123.833 0 0 0 4.763 0 4.763 0 14.288 0 33.34 0 47.628s0 33.34 0 47.628c-14.288 138.121-157.172 223.851-281.005 223.851-128.595 0-271.479-85.73-281.005-223.851-9.526-23.814-9.526-52.391-9.526-85.73 0-4.763 0-4.763 0-9.526-9.526-42.865-33.34-85.73-66.679-123.833zM38.102 364.651v0 0zM438.177-64c-52.391 0-104.781 23.814-142.884 66.679-9.526 14.288-9.526 38.102 4.763 52.391s38.102 9.526 52.391-4.763c38.102-47.628 104.781-57.153 152.409-19.051 9.526 4.763 14.288 9.526 19.051 19.051 14.288 14.288 33.34 19.051 52.391 4.763 14.288-14.288 19.051-33.34 4.763-52.391-9.526-9.526-19.051-23.814-33.34-28.577-28.577-23.814-71.442-38.102-109.544-38.102z"/>
<glyph unicode="" glyph-name="orders" horiz-adv-x="1045" d="M287.347-64c-47.020 0-83.592 36.571-83.592 78.367s36.571 78.367 83.592 78.367c20.898 0 41.796-10.449 52.245-26.122s20.898-36.571 20.898-57.469c0-36.571-36.571-73.143-73.143-73.143 0 0 0 0 0 0zM282.122 14.367v0 0zM872.49-64c0 0 0 0 0 0-41.796 0-78.367 36.571-78.367 78.367 0 20.898 10.449 41.796 20.898 57.469 15.673 15.673 36.571 20.898 57.469 20.898 0 0 0 0 0 0 41.796 0 78.367-36.571 78.367-78.367s-36.571-78.367-78.367-78.367zM872.49 14.367c0 0 0 0 0 0s0 0 0 0v0zM292.571 176.327c-67.918 0-125.388 52.245-130.612 120.163l-52.245 569.469-78.367 15.673c-20.898 5.224-36.571 26.122-31.347 47.020s26.122 36.571 47.020 31.347l109.714-20.898c15.673 0 26.122-15.673 31.347-31.347l10.449-146.286h736.653c5.224 0 10.449 0 15.673 0 26.122-5.224 52.245-20.898 73.143-41.796 15.673-20.898 26.122-52.245 20.898-83.592l-52.245-344.816c-10.449-62.694-62.694-114.939-130.612-114.939h-569.469c0 0 0 0 0 0zM203.755 677.878l31.347-376.163c0-26.122 26.122-52.245 52.245-52.245v0h569.469c26.122 0 52.245 20.898 52.245 47.020l57.469 350.041c0 15.673-10.449 31.347-26.122 36.571l-736.653-5.224zM778.449 489.796h-146.286c-20.898 0-41.796 15.673-41.796 41.796 0 20.898 15.673 36.571 41.796 36.571h146.286c20.898 0 41.796-15.673 41.796-36.571-5.224-26.122-20.898-41.796-41.796-41.796z"/>
<glyph unicode="" glyph-name="payment" horiz-adv-x="1099" d="M810.667 458.667c0-21.333 16-42.667 42.667-42.667h16c21.333 0 42.667 16 42.667 42.667s-16 42.667-42.667 42.667h-16c-21.333 0-42.667-21.333-42.667-42.667zM778.667 960h-458.667c-176 0-320-144-320-320v-384c0-176 144-320 320-320h458.667c176 0 320 144 320 320v384c0 176-144 320-320 320zM1018.667 352h-176c-58.667 0-101.333 48-101.333 106.667 0 53.333 48 96 101.333 101.333h176v-208zM778.667 16h-458.667c-133.333 0-240 106.667-240 240v384c0 133.333 106.667 240 240 240h458.667c133.333 0 240-106.667 240-240v0h-176c-96-5.333-176-80-176-176-5.333-101.333 74.667-186.667 181.333-192h176v-16c-5.333-133.333-112-240-245.333-240zM570.667 720h-288c-21.333 0-42.667-16-42.667-42.667s21.333-37.333 42.667-37.333h288c21.333 0 42.667 16 42.667 42.667s-21.333 37.333-42.667 37.333z"/>
<glyph unicode="" glyph-name="products" horiz-adv-x="970" d="M964.638 252.599l-39.575 301.758c-29.681 133.565-118.725 183.034-187.981 183.034h-4.947c-14.841 123.671-118.725 222.609-247.343 222.609s-237.449-98.937-252.29-222.609v0c-69.256 0-163.246-49.469-187.981-183.034l-39.575-296.812c-14.841-103.884 0-183.034 44.522-237.449s118.725-79.15 227.556-79.15h415.536c98.937 0 173.14 29.681 222.609 84.097 44.522 49.469 64.309 128.618 49.469 227.556zM484.792 885.797c0 0 0 0 0 0 89.043 0 163.246-64.309 173.14-148.406h-351.227c14.841 84.097 89.043 148.406 178.087 148.406zM855.807 69.565c-44.522-49.469-113.778-59.362-163.246-59.362h-415.536c-84.097 0-138.512 19.787-168.193 54.415s-39.575 98.937-29.681 178.087l39.575 296.812c19.787 113.778 93.99 123.671 113.778 123.671h504.58c54.415 0 98.937-44.522 113.778-118.725l39.575-301.758c9.894-74.203 0-133.565-34.628-173.14zM628.251 524.676c-19.787 0-39.575-14.841-39.575-39.575s14.841-39.575 39.575-39.575v0c19.787 0 34.628 14.841 34.628 39.575s-14.841 39.575-34.628 39.575zM341.333 524.676c-19.787 0-39.575-14.841-39.575-39.575s14.841-39.575 39.575-39.575v0c19.787 0 34.628 14.841 34.628 39.575s-14.841 39.575-34.628 39.575z"/>
<glyph unicode="" glyph-name="search" horiz-adv-x="999" d="M984.615 0l-157.538 157.538c78.769 83.692 128 196.923 128 320v9.846c0 260.923-216.615 477.538-482.462 472.615-128 0-246.154-54.154-334.769-142.769-88.615-93.538-137.846-211.692-137.846-339.692 4.923-260.923 216.615-472.615 472.615-472.615 0 0 4.923 0 4.923 0 113.231 0 216.615 39.385 295.385 103.385l157.538-157.538c4.923-4.923 14.769-9.846 24.615-9.846s19.692 4.923 24.615 9.846c19.692 9.846 19.692 34.462 4.923 49.231zM477.538 73.846c-216.615 0-398.769 182.154-403.692 403.692 0 108.308 39.385 211.692 118.154 290.462 73.846 78.769 177.231 123.077 285.538 123.077 0 0 4.923 0 4.923 0 221.538 0 403.692-177.231 403.692-403.692v-9.846c0-108.308-44.308-211.692-123.077-285.538-73.846-73.846-177.231-118.154-285.538-118.154 0 0 0 0 0 0z"/>
<glyph unicode="" glyph-name="minimize" d="M430.080 391.68c-5.12 5.12-15.36 5.12-20.48 5.12h-307.2c-30.72 0-51.2-20.48-51.2-51.2s20.48-51.2 51.2-51.2h184.32l-271.36-271.36c-20.48-20.48-20.48-51.2 0-71.68 10.24-10.24 20.48-15.36 35.84-15.36s25.6 5.12 35.84 15.36l271.36 271.36v-184.32c0-30.72 20.48-51.2 51.2-51.2s51.2 20.48 51.2 51.2v307.2c0 5.12 0 15.36-5.12 20.48-5.12 10.24-15.36 20.48-25.6 25.6zM1008.64 944.64c-20.48 20.48-51.2 20.48-71.68 0l-271.36-271.36v184.32c0 30.72-20.48 51.2-51.2 51.2s-51.2-20.48-51.2-51.2v-307.2c0-5.12 0-15.36 5.12-20.48 5.12-10.24 15.36-20.48 25.6-25.6 5.12-5.12 15.36-5.12 20.48-5.12h307.2c30.72 0 51.2 20.48 51.2 51.2s-20.48 51.2-51.2 51.2h-184.32l271.36 271.36c20.48 20.48 20.48 51.2 0 71.68z"/>
<glyph unicode="" glyph-name="square" d="M512 217.6c-20.48 0-40.96 15.36-40.96 40.96v220.16c0 20.48 20.48 40.96 40.96 40.96s40.96-15.36 40.96-40.96v-225.28c-5.12-20.48-20.48-35.84-40.96-35.84zM512 601.6c-20.48 0-40.96 20.48-40.96 40.96s20.48 35.84 40.96 35.84v0c20.48 0 40.96-15.36 40.96-40.96s-20.48-35.84-40.96-35.84zM732.16-64h-440.32c-174.080 0-291.84 122.88-291.84 302.080v419.84c0 179.2 117.76 302.080 291.84 302.080h445.44c168.96 0 286.72-122.88 286.72-302.080v-419.84c0-179.2-117.76-302.080-291.84-302.080zM291.84 883.2c-128 0-215.040-87.040-215.040-225.28v-419.84c0-138.24 81.92-225.28 215.040-225.28h445.44c128 0 215.040 87.040 215.040 225.28v419.84c0 138.24-81.92 225.28-215.040 225.28h-445.44z"/>
<glyph unicode="" glyph-name="thumbs" horiz-adv-x="1008" d="M795.569-64c0 0 0 0 0 0h-512c0 0 0 0 0 0h-133.908c-78.769 0-149.662 70.892-149.662 149.662v315.077c0 78.769 70.892 149.662 149.662 149.662h94.523l165.415 370.215c15.754 23.631 31.508 39.385 55.138 39.385 110.277 0 196.923-86.646 196.923-196.923v-118.154h196.923c7.877 0 15.754 0 23.631 0 78.769-15.754 141.785-86.646 126.031-173.292l-63.015-409.6c-7.877-70.892-70.892-126.031-149.662-126.031zM346.585 54.154h448.985c15.754 0 31.508 7.877 31.508 23.631l63.015 409.6c0 15.754-7.877 31.508-23.631 39.385h-259.938c-15.754 0-31.508 7.877-39.385 15.754s-23.631 23.631-23.631 39.385v181.169c0 31.508-15.754 55.138-39.385 70.892l-157.538-354.462v-425.354zM149.662 432.246c-15.754 0-31.508-15.754-31.508-31.508v-315.077c0-15.754 15.754-31.508 31.508-31.508h78.769v378.092h-78.769z"/>
<glyph unicode="" glyph-name="times" d="M732.16-64h-440.32c-174.080 0-291.84 122.88-291.84 302.080v419.84c0 179.2 117.76 302.080 291.84 302.080h445.44c168.96 0 286.72-122.88 286.72-302.080v-419.84c0-179.2-117.76-302.080-291.84-302.080zM291.84 883.2c-128 0-215.040-87.040-215.040-225.28v-419.84c0-138.24 81.92-225.28 215.040-225.28h445.44c128 0 215.040 87.040 215.040 225.28v419.84c0 138.24-81.92 225.28-215.040 225.28h-445.44zM686.080 304.64c-5.12 0-15.36 0-20.48 5.12l-174.080 102.4c-10.24 5.12-20.48 20.48-20.48 30.72v230.4c0 20.48 15.36 40.96 40.96 40.96s40.96-15.36 40.96-40.96v-199.68l153.6-92.16c20.48-10.24 25.6-35.84 15.36-51.2s-25.6-25.6-35.84-25.6z"/>
<glyph unicode="" glyph-name="trending_down" horiz-adv-x="1755" d="M1755.429 448c0 43.886-29.257 73.143-73.143 73.143s-73.143-29.257-73.143-73.143v-263.314l-570.514 570.514c-29.257 29.257-73.143 29.257-102.4 0l-314.514-314.514-497.371 497.371c-29.257 29.257-73.143 29.257-102.4 0s-29.257-73.143 0-102.4l548.571-548.571c29.257-29.257 73.143-29.257 102.4 0l314.514 314.514 519.314-519.314h-263.314c-43.886 0-73.143-29.257-73.143-73.143s29.257-73.143 73.143-73.143h438.857c7.314 0 21.943 0 29.257 7.314 14.629 7.314 29.257 21.943 36.571 36.571 7.314 7.314 7.314 21.943 7.314 29.257v438.857z"/>
<glyph unicode="" glyph-name="trending_up" horiz-adv-x="1755" d="M1748.114 916.114c-7.314 14.629-21.943 29.257-36.571 36.571-7.314 7.314-21.943 7.314-29.257 7.314h-438.857c-43.886 0-73.143-29.257-73.143-73.143s29.257-73.143 73.143-73.143h263.314l-519.314-519.314-314.514 314.514c-29.257 29.257-73.143 29.257-102.4 0l-548.571-548.571c-29.257-29.257-29.257-73.143 0-102.4 14.629-14.629 29.257-21.943 51.2-21.943s36.571 7.314 51.2 21.943l497.371 497.371 314.514-314.514c29.257-29.257 73.143-29.257 102.4 0l570.514 570.514v-263.314c0-43.886 29.257-73.143 73.143-73.143s73.143 29.257 73.143 73.143v438.857c0 7.314 0 21.943-7.314 29.257z"/>
<glyph unicode="" glyph-name="upload" horiz-adv-x="999" d="M779.239 620.332h-44.956c-19.98 0-39.961-14.985-39.961-39.961s14.985-39.961 39.961-39.961h44.956c79.922 0 144.859-64.937 144.859-144.859v-244.761c0-39.961-14.985-74.927-44.956-104.898s-64.937-44.956-104.898-44.956v0h-554.459c-79.922 0-144.859 64.937-144.859 144.859v244.761c0 79.922 64.937 144.859 144.859 144.859h44.956c19.98 0 39.961 14.985 39.961 39.961s-14.985 44.956-34.966 44.956h-49.951c-119.883 0-219.785-99.902-219.785-219.785v-244.761c0-119.883 99.902-219.785 219.785-219.785h554.459c0 0 0 0 0 0 59.941 0 114.888 24.976 154.849 64.937s64.937 99.902 64.937 154.849v244.761c4.995 119.883-94.907 219.785-214.79 219.785zM354.654 740.215c9.99 0 19.98 4.995 24.976 9.99l79.922 79.922v-509.502c0-19.98 14.985-39.961 39.961-39.961s39.961 14.985 39.961 39.961v509.502l79.922-79.922c14.985-14.985 39.961-14.985 54.946 0s14.985 39.961 0 54.946l-144.859 144.859c-9.99 4.995-19.98 9.99-29.971 9.99s-19.98-4.995-24.976-9.99l-144.859-144.859c-14.985-14.985-14.985-39.961 0-54.946 4.995-9.99 14.985-9.99 24.976-9.99z"/>
<glyph unicode="" glyph-name="user" horiz-adv-x="1325" d="M1005.929 466.071c0 0 0 0 0 0-30.118 0-48.188 24.094-48.188 48.188s24.094 42.165 48.188 42.165c72.282-6.024 132.518 54.212 132.518 126.494s-54.212 132.518-126.494 132.518c-24.094 0-48.188 18.071-48.188 42.165s18.071 48.188 42.165 48.188h6.024c120.471 0 216.847-102.4 216.847-222.871-6.024-126.494-102.4-216.847-222.871-216.847zM1168.565 74.541c-18.071 0-42.165 12.047-42.165 36.141-6.024 24.094 12.047 48.188 36.141 54.212 54.212 12.047 66.259 30.118 72.282 36.141 6.024 12.047 6.024 24.094 0 30.118-6.024 12.047-36.141 24.094-72.282 36.141-24.094 6.024-54.212 12.047-78.306 12.047s-42.165 24.094-42.165 48.188c0 24.094 24.094 42.165 48.188 42.165 30.118 0 60.235-6.024 90.353-12.047 66.259-12.047 114.447-42.165 132.518-84.329 18.071-36.141 18.071-72.282 0-108.424-18.071-42.165-66.259-72.282-132.518-84.329-6.024-6.024-6.024-6.024-12.047-6.024zM319.247 466.071c-54.212 0-108.424 24.094-150.588 60.235-42.165 42.165-66.259 96.376-72.282 150.588 0 120.471 96.376 222.871 216.847 222.871h6.024c24.094 0 42.165-18.071 42.165-48.188 0-24.094-18.071-42.165-48.188-42.165-78.306 0-132.518-60.235-132.518-132.518s60.235-126.494 132.518-126.494c24.094 0 48.188-18.071 48.188-42.165 6.024-24.094-12.047-42.165-42.165-42.165 0 0 0 0 0 0zM156.612 74.541c-6.024 0-6.024 0-12.047 0-72.282 12.047-114.447 42.165-132.518 84.329-18.071 36.141-18.071 72.282 0 108.424 18.071 42.165 66.259 72.282 132.518 84.329 30.118 6.024 60.235 12.047 96.376 12.047 24.094 0 48.188-18.071 48.188-42.165s-18.071-48.188-42.165-48.188c-30.118 0-54.212-6.024-78.306-12.047-60.235-12.047-72.282-30.118-72.282-36.141-6.024-12.047-6.024-24.094 0-30.118 0-6.024 12.047-24.094 72.282-36.141 24.094-6.024 42.165-30.118 36.141-54.212-6.024-18.071-30.118-30.118-48.188-30.118zM662.588-64c-114.447 0-409.6 0-409.6 192.753s307.2 192.753 409.6 192.753c114.447 0 409.6 0 409.6-192.753s-307.2-192.753-409.6-192.753zM662.588 237.176c-144.565 0-319.247-18.071-319.247-102.4s174.682-102.4 319.247-102.4c144.565 0 319.247 18.071 319.247 102.4s-174.682 102.4-319.247 102.4zM662.588 405.835c-72.282 0-144.565 30.118-192.753 78.306-54.212 54.212-84.329 120.471-84.329 198.776 0 150.588 120.471 277.082 277.082 277.082 0 0 0 0 0 0 72.282 0 144.565-30.118 198.776-78.306 54.212-54.212 84.329-120.471 84.329-192.753 0-78.306-30.118-144.565-78.306-198.776-60.235-54.212-126.494-84.329-204.8-84.329v0c0 0 0 0 0 0zM662.588 496.188c0 0 0 0 0 0 54.212 0 96.376 18.071 132.518 54.212s54.212 84.329 54.212 132.518c0 54.212-18.071 96.376-54.212 132.518s-78.306 54.212-132.518 54.212c-54.212 0-96.376-18.071-132.518-54.212s-54.212-84.329-54.212-132.518c0-54.212 18.071-96.376 54.212-132.518s84.329-54.212 132.518-54.212c0 0 0 0 0 0z"/>
<glyph unicode="" glyph-name="checkmark" d="M993.178 688.742l-576.41-582.758c-0.102-0.102-0.41-0.102-0.614-0.307-0.205-0.102-0.205-0.614-0.614-0.614-4.506-4.71-10.138-7.066-15.462-10.138-2.765-1.638-4.915-3.994-7.68-5.12-8.704-3.482-17.818-5.12-27.034-5.12s-18.432 1.638-27.238 5.427c-2.765 1.331-5.12 3.686-7.782 5.12-5.222 3.072-10.957 5.939-15.667 10.445-0.102 0.102-0.102 0.307-0.307 0.41-0.102 0.102-0.41 0.102-0.614 0.614l-283.238 291.021c-27.648 28.467-26.931 74.138 1.536 101.99 28.467 27.443 74.035 27.034 101.683-1.741l232.141-238.49 524.8 530.534c27.75 28.365 73.318 28.467 101.581 0.512 28.262-27.853 28.774-73.626 0.922-101.786v0 0z"/>
<glyph unicode="" glyph-name="trashcan" horiz-adv-x="922" d="M885.094 699.341c20.265 0.487 36.506 17.030 36.506 37.366 0 0.076 0 0.151-0.001 0.227v-0.012 19.456c0.003 0.169 0.004 0.367 0.004 0.567 0 20.266-16.285 36.728-36.483 37.014h-149.326c-31.144 0.314-57.063 22.303-63.41 51.587l-0.078 0.432-8.397 37.376c-11.622 45.056-52.173 76.646-97.382 76.646h-211.456c-45.722 0-85.76-31.59-97.894-79.155l-7.782-34.918c-6.484-29.69-32.402-51.645-63.504-51.968h-149.334c-20.253-0.287-36.56-16.772-36.56-37.065 0-0.181 0.001-0.362 0.004-0.543v0.027-19.456c0-0.063-0.001-0.139-0.001-0.214 0-20.354 16.27-36.909 36.515-37.366l0.043-0.001zM461.005-64c63.744 0 128.512 0.512 194.867 1.997 86.17 1.485 143.616 55.603 153.395 144.742 15.565 145.254 42.854 490.342 42.854 493.824 0.101 1.039 0.158 2.246 0.158 3.466 0 9.634-3.571 18.433-9.462 25.147l0.037-0.043c-6.684 7.255-16.182 11.829-26.75 11.98h-710.171c-10.24 0-20.019-4.454-26.829-11.981-6.082-7.044-9.786-16.289-9.786-26.399 0-0.764 0.021-1.522 0.063-2.275l-0.005 0.105c0.512-3.482 27.238-348.058 43.315-493.824 9.216-87.654 66.765-142.746 150.016-144.742 64.307-1.485 130.56-1.997 198.298-1.997z"/>
</font>
</defs>
</svg>
