<svg xmlns="http://www.w3.org/2000/svg" width="176.848" height="45.085" viewBox="0 0 176.848 45.085">
  <g id="Group_6651" data-name="Group 6651" transform="translate(-30.152 -40)">
    <g id="Group_5999" data-name="Group 5999">
      <text id="Uber_Eats" data-name="Uber Eats" transform="translate(91 61)" fill="#2b2b2b" font-size="26" font-family="CircularStd-Bold, Circular Std Bold" font-weight="700"><tspan x="0" y="0">Uber </tspan><tspan y="0" fill="#70be36">Eats</tspan></text>
      <text id="For_Restaurants" data-name="For Restaurants" transform="translate(91 82)" fill="#a7a7a7" font-size="14" font-family="CircularStd-Book, Circular Std Book"><tspan x="0" y="0">For Restaurants</tspan></text>
    </g>
    <g id="Group_5998" data-name="Group 5998" transform="translate(-320.5 -310)">
      <rect id="Rectangle_1050" data-name="Rectangle 1050" width="45.004" height="45.004" rx="22.502" transform="translate(350.652 350.081)"/>
      <path id="Path_7" data-name="Path 7" d="M486.616,508.329h-1.3v-6.356h1.3v.714a1.773,1.773,0,0,1,1.555-.781h.393v1.273h-.4c-1.09,0-1.547.576-1.547,1.625v3.526Zm-24.155-8.712h1.394v5.322a2.142,2.142,0,1,0,4.269-.008v-5.314h1.321v8.71h-1.321v-.784a3.429,3.429,0,0,1-2.229.966,3.467,3.467,0,0,1-3.435-3.747v-5.144Zm9.376,8.7h-1.294V499.62h1.294v3.128a3.444,3.444,0,0,1,2.384-.871,3.148,3.148,0,0,1,3.214,3.15,3.419,3.419,0,0,1-3.327,3.505,2.923,2.923,0,0,1-2.271-.982v.763ZM474,503.034a2.166,2.166,0,1,0,2.166,2.166A2.166,2.166,0,0,0,474,503.034Zm10.452,2.567h-5.125a2.245,2.245,0,0,0,2.133,1.785,2.426,2.426,0,0,0,1.828-.977l.873.679c-.911,1.633-3.55,1.742-4.927.665a3.134,3.134,0,0,1-1.244-2.679,3.324,3.324,0,0,1,3.45-3.252c1.618.018,3.164,1.177,3.012,3.779Zm-1.311-1.023a1.931,1.931,0,0,0-3.8,0Z" transform="translate(-102.364 -136.904)" fill="#fff" fill-rule="evenodd"/>
      <path id="Path_8" data-name="Path 8" d="M464.626,635.857v-2.144h4.345v-1.471h-4.345V630.1H469.1v-1.471h-6.159v8.7H469.1v-1.471Zm24.183-2.912h-1.633a.949.949,0,0,0-.344-.553,1.882,1.882,0,0,0-.989-.388c-.576-.056-1.234.238-1.253.588-.012.216.221.454.868.644,1.083.317,2.469.179,3.228,1.169.888,1.159-.043,2.984-2.6,3.063-1.529.047-3.134-.622-3.346-2.251h1.617a1.558,1.558,0,0,0,.589.684c.561.346,2.221.417,2.326-.384a.358.358,0,0,0-.187-.342,3.93,3.93,0,0,0-1.29-.362c-2.037-.281-2.783-.943-2.924-1.784a1.687,1.687,0,0,1,.16-1.073,2.3,2.3,0,0,1,.466-.6,3.409,3.409,0,0,1,2.392-.756c1.257.039,2.861.73,2.921,2.345Zm-6.507,2.887V637.3h-1.789a1.627,1.627,0,0,1-1.723-1.777v-3.174h-1.229V630.9h1.229v-1.859h1.649V630.9H482.3v1.453h-1.863v2.778c0,.609.212.7.794.7Zm-7.092-4.4v-.542h1.681V637.3h-1.681v-.6a3.359,3.359,0,0,1-2.225.759,3.376,3.376,0,1,1,.255-6.747,3.154,3.154,0,0,1,1.97.714Zm-1.95.72a1.932,1.932,0,1,0,1.932,1.932A1.932,1.932,0,0,0,473.259,632.15Z" transform="translate(-102.804 -255.016)" fill="#70be36" fill-rule="evenodd"/>
    </g>
  </g>
</svg>
